# xmcd CD database file
#
# Track frame offsets:
#	150
#	18885
#	37809
#	52478
#	64769
#	80866
#	96222
#	99975
#	116103
#	131323
#	145944
#	153428
#	167647
#
# Disc length: 2418 seconds
#
# Revision: 0
# Processed by: cddbd v1.5.1PL0 Copyright (c) Steve Scherf et al.
# Submitted via: CDex 1.51
#
DISCID=ac09700d
DTITLE=Blue Junction - Dating
DYEAR=2005
DGENRE=Blues
TTITLE0=Strange Spirit
TTITLE1=Diamond on a dump
TTITLE2=The Journey
TTITLE3=Give it up judy
TTITLE4=Out of Love
TTITLE5=Big Body Brown
TTITLE6=El Mercado
TTITLE7=No Reason
TTITLE8=Introduced To The Blues
TTITLE9=The Good Things Are Hard To See
TTITLE10=There Is You
TTITLE11=En Gydehistorie
TTITLE12=Net Date
EXTD=YEAR: 2005
EXTT0=
EXTT1=
EXTT2=
EXTT3=
EXTT4=
EXTT5=
EXTT6=
EXTT7=
EXTT8=
EXTT9=
EXTT10=
EXTT11=
EXTT12=
PLAYORDER=
